<svg xmlns="http://www.w3.org/2000/svg" xmlns:xlink="http://www.w3.org/1999/xlink" viewBox="0,0,256,256" width="64px" height="64px">
  <g fill="hsl(0, 0%, 84%)" fill-rule="nonzero" stroke="none" stroke-width="1" stroke-linecap="butt" stroke-linejoin="miter" stroke-miterlimit="10" stroke-dasharray="" stroke-dashoffset="0" font-family="none" font-weight="none" font-size="none" text-anchor="none" style="mix-blend-mode: normal">
    <g transform="scale(4,4)">
      <path d="M12.56836,4c-1.128,0 -2.25433,0.33561 -3.23633,1.09961c-1.5,1 -2.33203,2.667 -2.33203,4.5v21.40039c0,0.552 0.448,1 1,1c0.552,0 1,-0.448 1,-1v-21.40039c0,-1.191 0.52636,-2.22494 1.44336,-2.83594l0.06055,-0.04102l0.05859,-0.04492c0.577,-0.449 1.25286,-0.67773 2.00586,-0.67773c0.389,0 0.78902,0.06083 1.16602,0.17383l38.75195,12.17578c2.091,0.657 3.51367,2.59611 3.51367,4.78711v27.01563c0,2.114 -1.7105,3.83398 -3.8125,3.83398c-0.374,0 -0.75114,-0.05697 -1.11914,-0.16797c-1.82,-0.551 -3.75953,-1.14472 -5.76953,-1.76172c-0.643,-0.198 -1.29883,0.28308 -1.29883,0.95508c0,0.439 0.29094,0.82803 0.71094,0.95703c2.009,0.618 3.95134,1.21067 5.77734,1.76367c0.57,0.172 1.14122,0.25391 1.69922,0.25391c3.105,0 5.8125,-2.51898 5.8125,-5.83398v-27.01562c0,-3.065 -1.98906,-5.77631 -4.91406,-6.69531l-38.75391,-12.17578c-0.575,-0.173 -1.16867,-0.26562 -1.76367,-0.26562zM46,22c-0.552,0 -1,0.448 -1,1c0,0.552 0.448,1 1,1h2c0.552,0 1,-0.448 1,-1c0,-0.552 -0.448,-1 -1,-1zM38.6875,23.00586c-2.018,-0.106 -3.6875,1.49914 -3.6875,3.49414v11.5v10.86523v2.0957v5.40625c0,1.895 1.4195,3.59436 3.3125,3.69336c2.018,0.106 3.6875,-1.50109 3.6875,-3.49609v-0.56445v-2.86523v-2.0957v-2.03906v-22.30273c0,-1.895 -1.4195,-3.59241 -3.3125,-3.69141zM38.5,25c0.827,0 1.5,0.673 1.5,1.5v30.06445c0,0.827 -0.673,1.5 -1.5,1.5c-0.827,0 -1.5,-0.673 -1.5,-1.5v-30.06445c0,-0.827 0.673,-1.5 1.5,-1.5zM28.5,27c-1.933,0 -3.5,1.567 -3.5,3.5v7.5v7.72852v2.09766v4.17383v1.5c0,1.933 1.567,3.5 3.5,3.5c1.933,0 3.5,-1.567 3.5,-3.5v-3.47656v-2.0957v-9.92773v-7.5c0,-1.933 -1.567,-3.5 -3.5,-3.5zM46,27c-0.552,0 -1,0.448 -1,1c0,0.552 0.448,1 1,1h2c0.552,0 1,-0.448 1,-1c0,-0.552 -0.448,-1 -1,-1zM28.5,29c0.827,0 1.5,0.673 1.5,1.5v23c0,0.827 -0.673,1.5 -1.5,1.5c-0.827,0 -1.5,-0.673 -1.5,-1.5v-23c0,-0.827 0.673,-1.5 1.5,-1.5zM18.5,31c-1.933,0 -3.5,1.567 -3.5,3.5v3.5v4.57031v2.09766v4.83203c0,1.933 1.567,3.5 3.5,3.5c1.933,0 3.5,-1.567 3.5,-3.5v-2.61914v-2.09766v-6.7832v-3.5c0,-1.933 -1.567,-3.5 -3.5,-3.5zM46,32c-0.552,0 -1,0.448 -1,1c0,0.552 0.448,1 1,1h2c0.552,0 1,-0.448 1,-1c0,-0.552 -0.448,-1 -1,-1zM18.5,33c0.827,0 1.5,0.673 1.5,1.5v15c0,0.827 -0.673,1.5 -1.5,1.5c-0.827,0 -1.5,-0.673 -1.5,-1.5v-15c0,-0.827 0.673,-1.5 1.5,-1.5zM8.5,34c-1.933,0 -3.5,1.567 -3.5,3.5v7.80273c0,1.895 1.4195,3.59241 3.3125,3.69141c2.018,0.106 3.6875,-1.49914 3.6875,-3.49414v-1.7832v-2.09961v-4.11719c0,-1.933 -1.567,-3.5 -3.5,-3.5zM8.5,36c0.827,0 1.5,0.673 1.5,1.5v8c0,0.827 -0.673,1.5 -1.5,1.5c-0.827,0 -1.5,-0.673 -1.5,-1.5v-8c0,-0.827 0.673,-1.5 1.5,-1.5zM46,37c-0.552,0 -1,0.448 -1,1c0,0.552 0.448,1 1,1h2c0.552,0 1,-0.448 1,-1c0,-0.552 -0.448,-1 -1,-1zM46,42c-0.552,0 -1,0.448 -1,1c0,0.552 0.448,1 1,1h2c0.552,0 1,-0.448 1,-1c0,-0.552 -0.448,-1 -1,-1zM46,47c-0.552,0 -1,0.448 -1,1c0,0.552 0.448,1 1,1h2c0.552,0 1,-0.448 1,-1c0,-0.552 -0.448,-1 -1,-1z" fill="hsl(0, 0%, 74%)"></path>
    </g>
  </g>
</svg>
